<svg width="48" height="48" viewBox="0 0 48 48" fill="none" xmlns="http://www.w3.org/2000/svg">
  <path d="M44 12V36C44 38.21 42.21 40 40 40H36V17.77L24 26L12 17.77V40H8C5.79 40 4 38.21 4 36V12C4 11.27 4.18 10.59 4.49 10L4.51 9.99C5.12 8.75 6.43 8 8 8C8.3 8 8.59 8.04 8.86 8.11L9 8.15L24 18.5L39 8.15L39.14 8.11C39.41 8.04 39.7 8 40 8C41.57 8 42.88 8.75 43.49 9.99L43.51 10C43.82 10.59 44 11.27 44 12Z" fill="#EA4335"/>
  <path d="M12 40V17.77L4.51 10.86C4.19 11.42 4 12.18 4 12.91V36C4 38.21 5.79 40 8 40H12Z" fill="#C5221F"/>
  <path d="M36 40H40C42.21 40 44 38.21 44 36V12.91C44 12.18 43.81 11.42 43.49 10.86L36 17.77V40Z" fill="#FBBC04"/>
  <path d="M24 18.5L9 8.15C8.7 8.05 8.36 8 8 8C6.35 8 5 9.35 5 11V12L24 26L43 12V11C43 9.35 41.65 8 40 8C39.64 8 39.3 8.05 39 8.15L24 18.5Z" fill="#34A853"/>
  <path d="M5 11L12 17.77V40H8C5.79 40 4 38.21 4 36V12C4 11.63 4.06 11.28 4.16 10.94C4.45 9.81 5.38 8.96 6.54 8.74L5 11Z" fill="#C5221F"/>
  <path d="M43 11L41.46 8.74C42.62 8.96 43.55 9.81 43.84 10.94C43.94 11.28 44 11.63 44 12V36C44 38.21 42.21 40 40 40H36V17.77L43 11Z" fill="#FBBC04"/>
</svg>