<svg width="48" height="48" viewBox="0 0 48 48" fill="none" xmlns="http://www.w3.org/2000/svg">
  <path d="M8 40C6.9 40 5.958 39.608 5.174 38.824C4.39 38.04 3.998 37.098 3.998 35.998V12C3.998 10.9 4.39 9.958 5.174 9.174C5.958 8.39 6.9 7.998 8 7.998H40C41.1 7.998 42.042 8.39 42.826 9.174C43.61 9.958 44.002 10.9 44.002 12V36C44.002 37.1 43.61 38.042 42.826 38.826C42.042 39.61 41.1 40.002 40 40.002L8 40Z" fill="#ECEFF1"/>
  <path d="M44 12.822V36C44 37.1 43.608 38.042 42.824 38.826C42.04 39.61 41.098 40 39.998 40H36V16L24 26L12 16V40H8C6.9 40 5.958 39.608 5.174 38.824C4.39 38.04 4 37.098 4 35.998V12.822C4 12.322 4.1 11.847 4.3 11.397C4.5 10.947 4.775 10.547 5.125 10.197L5.175 10.147C5.525 9.797 5.925 9.522 6.375 9.322C6.825 9.122 7.3 9.022 7.8 9.022H8.05C8.55 9.022 9.025 9.122 9.475 9.322C9.925 9.522 10.325 9.797 10.675 10.147L24 21.172L37.325 10.147C37.675 9.797 38.075 9.522 38.525 9.322C38.975 9.122 39.45 9.022 39.95 9.022H40.2C40.7 9.022 41.175 9.122 41.625 9.322C42.075 9.522 42.475 9.797 42.825 10.147L42.875 10.197C43.225 10.547 43.5 10.947 43.7 11.397C43.9 11.847 44 12.322 44 12.822Z" fill="#CFD8DC"/>
  <path d="M8 40H20V16L8 8V40Z" fill="#EA4335"/>
  <path d="M28 40H40V8L28 16V40Z" fill="#34A853"/>
  <path d="M20 16L24 13L28 16L40 8H8L20 16Z" fill="#FBBC04"/>
  <path d="M24 26L28 16H20L24 26Z" fill="#4285F4"/>
</svg>
